<?xml version="1.0" standalone="no"?>
<!DOCTYPE svg PUBLIC "-//W3C//DTD SVG 20010904//EN"
 "http://www.w3.org/TR/2001/REC-SVG-20010904/DTD/svg10.dtd">
<svg version="1.0" xmlns="http://www.w3.org/2000/svg"
 width="1300.000000pt" height="1300.000000pt" viewBox="0 0 1300.000000 1300.000000"
 preserveAspectRatio="xMidYMid meet">

<g transform="translate(0.000000,1300.000000) scale(0.100000,-0.100000)"
fill="#000000" stroke="none">
<path d="M6270 11614 c-151 -11 -416 -37 -505 -50 -953 -138 -1841 -542 -2585
-1174 -63 -53 -126 -111 -239 -217 l-56 -51 20 -24 20 -23 -24 20 -23 20 -66
-70 c-392 -421 -690 -849 -915 -1315 -79 -165 -167 -369 -167 -389 0 -7 31
-11 83 -11 l82 0 34 83 c63 154 219 462 314 619 706 1172 1815 1984 3139 2297
606 144 1307 166 1931 61 561 -95 1076 -275 1575 -550 178 -98 186 -103 337
-203 786 -519 1415 -1260 1800 -2120 41 -92 75 -172 75 -177 0 -6 40 -10 89
-10 l90 0 -25 63 c-14 34 -29 71 -34 82 -5 11 -34 76 -65 145 -91 202 -210
421 -358 655 -127 202 -360 499 -575 732 -73 79 -88 91 -101 80 -14 -10 -14
-10 -3 4 10 14 -3 30 -95 116 -397 368 -741 613 -1186 843 -587 303 -1199 482
-1867 545 -160 15 -589 27 -700 19z"/>
<path d="M6225 11104 c-164 -11 -529 -59 -630 -83 -22 -6 -83 -20 -135 -31
-357 -80 -787 -239 -1100 -407 -434 -234 -777 -488 -1115 -827 -322 -322 -552
-625 -774 -1021 -58 -103 -171 -328 -191 -381 l-10 -24 133 0 132 0 18 43 c44
107 210 396 326 567 56 83 92 131 234 318 63 83 238 271 366 394 611 587 1375
982 2206 1142 443 84 928 99 1370 40 66 -9 134 -17 150 -19 17 -2 37 -5 45 -8
8 -3 56 -13 105 -22 127 -23 368 -87 515 -136 973 -324 1787 -966 2338 -1843
82 -130 252 -443 252 -463 0 -10 34 -13 135 -13 l135 0 -11 27 c-17 45 -144
296 -205 405 -209 374 -507 758 -820 1058 -158 151 -429 375 -549 453 -22 14
-66 44 -98 67 -277 191 -676 389 -1032 513 -335 116 -641 185 -1035 232 -130
16 -616 28 -755 19z"/>
<path d="M6475 9324 c-310 -69 -537 -294 -627 -621 -18 -66 -22 -109 -24 -278
l-2 -200 -46 -70 c-80 -122 -140 -294 -153 -438 -3 -37 -10 -70 -14 -73 -4 -2
-95 2 -201 11 -520 41 -1029 107 -1518 196 -345 63 -847 170 -872 185 -10 7
-10 -25 12 -856 6 -195 10 -383 10 -417 l0 -63 -305 0 -305 0 0 705 0 704
-245 3 -245 3 0 -1612 0 -1613 245 0 245 0 0 705 0 705 309 0 309 0 6 -262 c4
-145 11 -442 16 -662 5 -219 11 -401 14 -403 2 -3 87 14 188 37 1868 421 3810
491 5740 205 247 -36 383 -60 706 -121 106 -20 194 -35 197 -32 4 4 35 1052
35 1196 l0 42 315 0 315 0 0 -137 c0 -76 0 -393 0 -705 l0 -568 250 0 250 0 0
1226 c0 1167 -1 1226 -17 1213 -17 -13 -17 -13 0 7 15 19 17 53 17 397 l0 377
-250 0 -250 0 0 -627 c0 -346 0 -663 0 -705 l0 -78 -311 0 -311 0 6 238 c4
130 8 298 11 372 16 465 17 630 5 630 -7 0 -92 -16 -189 -35 -634 -124 -1314
-216 -1896 -255 -88 -6 -172 -12 -187 -15 -26 -4 -27 -2 -33 53 -10 89 -24
161 -47 232 -24 77 -89 211 -127 260 -26 35 -26 36 -27 225 -1 172 -4 199 -28
290 -84 315 -277 522 -571 615 -94 29 -299 37 -400 14z m349 -248 c86 -31 161
-82 231 -158 121 -131 217 -427 155 -483 -21 -19 -39 -18 -135 12 -54 16 -99
18 -430 18 -356 0 -373 -1 -442 -22 -39 -13 -79 -23 -89 -23 -30 0 -54 30 -54
69 0 61 48 219 92 305 132 254 419 374 672 282z m-927 -1138 c-36 -61 -66
-161 -74 -240 l-6 -68 -33 0 c-29 0 -34 3 -34 24 0 37 39 156 67 205 24 41 90
121 100 121 3 0 -6 -19 -20 -42z m-2537 -139 c752 -140 1459 -231 2125 -274
50 -3 160 -10 245 -15 431 -28 1167 -34 1635 -14 178 7 733 42 880 54 407 35
993 110 1400 179 94 16 173 26 176 23 3 -4 2 -142 -2 -307 -4 -165 -10 -430
-13 -590 -7 -328 -14 -610 -21 -830 -3 -82 -8 -293 -11 -467 -4 -175 -9 -318
-11 -318 -2 0 -113 18 -246 39 -589 96 -1266 170 -1777 196 -69 4 -147 8 -175
10 -27 2 -203 9 -390 16 -478 17 -1229 1 -1705 -35 -36 -3 -103 -8 -150 -11
-204 -14 -718 -69 -985 -106 -331 -45 -421 -60 -813 -131 -155 -28 -284 -49
-286 -47 -1 2 -10 342 -20 754 -9 413 -18 811 -21 885 -2 74 -7 324 -11 555
-3 231 -7 430 -9 443 -2 12 2 22 8 22 7 0 86 -14 177 -31z m-960 -1842 c0 -1
-37 -38 -82 -82 l-83 -80 80 83 c74 76 85 87 85 79z m-240 -240 c0 -2 -10 -12
-22 -23 l-23 -19 19 23 c18 21 26 27 26 19z"/>
<path d="M3785 7039 c3 -107 10 -437 16 -734 6 -297 12 -540 13 -541 1 -1 240
23 243 25 1 1 -1 133 -4 294 l-6 292 54 0 c30 0 102 1 162 3 l107 2 0 94 0 93
-37 7 c-21 3 -95 6 -165 6 l-128 0 0 208 c0 115 2 211 4 213 3 2 85 -1 183 -8
98 -6 188 -12 201 -12 22 -1 23 1 20 96 l-3 98 -250 22 c-137 12 -287 25 -333
29 l-83 7 6 -194z"/>
<path d="M8818 7179 c-228 -30 -359 -171 -346 -374 9 -138 65 -215 291 -398
111 -90 159 -149 178 -220 24 -90 -23 -179 -97 -180 -53 -2 -102 20 -119 54
-9 17 -15 57 -15 104 l0 75 -131 0 -132 0 5 -91 c7 -115 39 -183 116 -246 75
-61 167 -88 302 -88 116 0 176 19 233 73 75 71 110 214 83 341 -25 121 -75
189 -231 319 -146 122 -170 145 -201 191 -25 38 -29 54 -29 113 0 63 2 70 32
99 57 58 179 48 203 -17 6 -14 10 -48 10 -75 l0 -50 118 3 117 3 -1 80 c-3
211 -144 315 -386 284z"/>
<path d="M4574 6619 c3 -299 9 -599 12 -667 l6 -123 117 7 c64 4 119 9 122 13
6 6 -8 1292 -14 1298 -2 1 -58 5 -126 9 l-124 7 7 -544z"/>
<path d="M4930 7052 c0 -51 1 -93 3 -93 1 -1 61 -5 132 -8 l130 -6 6 -535 c3
-294 7 -536 8 -537 3 -6 207 -2 229 3 l22 6 -7 529 -6 528 131 -6 132 -6 0 86
0 86 -32 5 c-18 3 -150 10 -293 16 -143 6 -304 13 -357 17 l-98 6 0 -91z"/>
<path d="M7880 7116 c-124 -36 -195 -88 -236 -172 -54 -111 -31 -258 55 -357
30 -34 150 -130 212 -169 14 -9 51 -40 84 -69 95 -88 128 -186 85 -257 -39
-63 -141 -70 -192 -13 -25 28 -28 39 -28 101 l0 70 -130 0 -130 0 0 -58 c0
-130 59 -226 173 -282 80 -39 161 -53 269 -47 145 8 238 64 283 170 22 53 29
145 16 205 -26 122 -80 190 -256 319 -173 129 -215 181 -215 267 0 57 14 88
50 109 32 19 120 23 151 7 28 -16 49 -63 49 -115 l0 -45 89 0 c49 0 103 3 121
6 l32 7 -5 61 c-9 92 -24 134 -69 182 -64 69 -112 87 -248 90 -74 2 -131 -1
-160 -10z"/>
<path d="M5820 6677 c0 -233 3 -506 7 -606 l6 -182 91 5 c50 2 106 5 124 5
l33 1 -3 424 c-2 233 -2 423 0 421 3 -2 100 -267 162 -440 15 -44 45 -125 65
-180 21 -55 47 -128 58 -163 l21 -63 130 3 129 3 1 590 1 590 -113 3 -112 3 0
-342 c1 -188 0 -343 -2 -345 -3 -3 -93 238 -225 601 l-29 80 -49 7 c-28 3
-105 7 -172 7 l-123 1 0 -423z"/>
<path d="M7063 7093 l-263 -3 0 -595 0 -595 278 0 c154 0 306 -3 340 -6 l61
-7 3 34 c2 19 1 60 0 92 l-4 57 -214 0 -214 0 0 175 0 175 175 0 175 0 0 85 0
85 -172 0 -173 0 3 165 3 165 168 0 c93 0 189 3 215 6 l46 7 0 83 0 84 -82 -2
c-46 -2 -201 -4 -345 -5z"/>
<path d="M1638 7783 l-208 -3 0 -1265 0 -1265 225 0 225 0 0 1270 c0 1204 -1
1270 -17 1268 -10 -2 -111 -4 -225 -5z m202 -2386 c0 -2 -19 -21 -42 -42 l-43
-40 40 43 c36 39 45 47 45 39z"/>
<path d="M11133 6484 l2 -1266 220 1 c121 0 222 1 225 1 3 0 5 568 4 1263 l-1
1262 -226 3 -227 2 3 -1266z"/>
<path d="M990 6515 l0 -835 185 0 185 0 0 835 0 835 -185 0 -185 0 0 -835z"/>
<path d="M11651 6503 c1 -450 4 -827 8 -838 6 -19 15 -20 184 -20 l177 0 0
838 0 837 -185 0 -185 0 1 -817z"/>
<path d="M790 6485 l0 -255 80 0 80 0 -2 253 -3 252 -77 3 -78 3 0 -256z"/>
<path d="M12057 6733 c-4 -3 -7 -118 -7 -255 l0 -248 80 0 80 0 0 255 0 255
-73 0 c-41 0 -77 -3 -80 -7z"/>
<path d="M6650 4570 c0 -434 2 -512 16 -561 32 -114 119 -177 228 -166 97 10
165 60 208 152 23 50 23 52 26 546 l3 496 -23 7 c-13 3 -49 6 -80 6 l-57 0 -3
-496 -3 -496 -24 -19 c-31 -26 -83 -25 -107 2 -18 20 -19 46 -22 520 l-3 499
-27 0 c-15 0 -51 3 -79 6 l-53 7 0 -503z"/>
<path d="M6213 5053 l-43 -4 0 -588 0 -589 23 -5 c12 -4 106 -9 210 -13 l187
-7 0 85 c0 69 -3 87 -16 92 -9 3 -67 6 -130 6 l-114 0 -2 513 -3 512 -35 1
c-19 1 -54 -1 -77 -3z"/>
<path d="M5832 5019 c-70 -9 -139 -52 -179 -111 -49 -74 -56 -138 -51 -493 3
-298 4 -312 26 -360 45 -97 118 -151 222 -162 44 -4 71 -1 105 11 92 35 125
113 125 293 l0 113 -80 0 -80 0 0 -108 c0 -95 -2 -111 -20 -130 -24 -26 -50
-28 -90 -7 -47 24 -51 60 -48 418 3 348 5 361 58 374 77 20 100 -9 100 -128
l0 -89 49 0 c27 0 63 3 80 6 l31 7 0 91 c-1 213 -76 297 -248 275z"/>
<path d="M7230 4459 l0 -572 63 7 c259 28 341 64 393 173 25 52 28 69 28 163
0 58 -5 123 -12 145 -11 40 -56 97 -83 108 -11 4 -8 11 13 29 50 44 63 83 63
198 0 90 -3 112 -23 152 -13 25 -39 58 -58 73 -63 48 -80 53 -346 90 l-38 5 0
-571z m273 369 c27 -14 37 -51 37 -139 0 -72 -3 -82 -25 -104 -19 -20 -34 -25
-75 -25 l-50 0 0 146 0 145 48 -7 c26 -3 55 -11 65 -16z m17 -438 c25 -13 40
-70 40 -150 0 -80 -15 -137 -39 -150 -11 -5 -44 -13 -75 -16 l-56 -7 0 167 0
166 56 0 c30 0 64 -5 74 -10z"/>
<path d="M8014 4595 l-28 -85 -94 0 -95 0 53 -37 c29 -21 63 -47 76 -58 l23
-20 -24 -75 c-14 -41 -24 -78 -22 -83 1 -4 33 15 71 42 l69 50 71 -49 c39 -27
72 -46 74 -41 1 4 -9 40 -23 78 -14 39 -25 75 -25 80 0 5 14 17 31 27 18 10
39 26 48 35 9 9 28 24 41 33 24 17 23 17 -67 17 l-92 1 -27 85 c-14 47 -28 85
-30 85 -1 0 -15 -38 -30 -85z"/>
<path d="M5218 4593 l-25 -78 -89 -5 -89 -5 67 -50 c37 -27 67 -55 68 -61 0
-6 -11 -45 -24 -85 -13 -41 -23 -75 -21 -77 2 -2 35 19 74 47 l71 51 69 -50
c38 -27 71 -50 74 -50 3 0 -7 38 -23 85 l-29 85 76 52 75 53 -93 5 -94 5 -25
78 c-13 42 -27 77 -31 77 -4 0 -18 -35 -31 -77z"/>
<path d="M1730 4655 c0 -16 102 -250 170 -390 329 -681 844 -1319 1447 -1792
90 -70 354 -258 399 -284 16 -9 61 -37 99 -61 477 -299 1092 -537 1680 -652
548 -106 1149 -120 1715 -40 949 134 1880 563 2617 1207 515 449 953 1021
1243 1622 68 140 170 374 170 390 0 3 -37 5 -83 5 l-84 0 -58 -132 c-385 -882
-1017 -1633 -1820 -2165 -1049 -695 -2312 -959 -3568 -747 -439 74 -881 215
-1287 410 -146 71 -332 170 -410 219 -19 12 -66 42 -105 66 -824 517 -1504
1310 -1900 2217 l-58 132 -84 0 c-46 0 -83 -2 -83 -5z"/>
<path d="M2280 4650 c0 -18 129 -276 205 -410 151 -267 289 -465 494 -708 141
-168 271 -303 284 -295 5 3 7 1 3 -5 -11 -18 265 -263 472 -420 355 -269 809
-512 1232 -660 749 -261 1499 -326 2295 -197 881 142 1730 565 2395 1193 l95
89 -20 24 -20 24 24 -20 23 -20 86 90 c263 279 511 618 696 955 52 95 176 348
176 360 0 6 -48 10 -128 10 l-128 0 -33 -67 c-285 -583 -702 -1101 -1220
-1518 -80 -65 -105 -83 -282 -204 -576 -395 -1282 -648 -2019 -723 -160 -17
-677 -16 -830 1 -176 19 -175 19 -330 46 -400 70 -770 189 -1135 364 -877 421
-1605 1141 -2036 2014 l-43 87 -128 0 c-82 0 -128 -4 -128 -10z m7345 -1270
c10 -11 16 -20 13 -20 -3 0 -13 9 -23 20 -10 11 -16 20 -13 20 3 0 13 -9 23
-20z"/>
</g>
</svg>
